<svg xmlns="http://www.w3.org/2000/svg" viewBox="0 0 460 496.18"><defs><style>.cls-1{fill:#1b1f26;}.cls-2{font-size:53.24px;font-family:AcherusGrotesque-Regular, Acherus Grotesque;}.cls-2,.cls-5{fill:#fff;}.cls-3{letter-spacing:-0.01em;}.cls-4{font-size:21.3px;fill:#838380;font-family:AcherusGrotesque-RegularItalic, Acherus Grotesque;font-style:italic;}</style></defs><g id="fond"><rect class="cls-1" width="460" height="496.18"/><text class="cls-2" transform="translate(97.22 433.26)">COST A<tspan class="cls-3" x="199.49" y="0">R</tspan><tspan x="234.52" y="0">T</tspan></text><text class="cls-4" transform="translate(185.53 466.27)">HOMME</text></g><g id="Layer_1" data-name="Layer 1"><path class="cls-5" d="M409.59,416C465,251.08,466,109.4,466,109.4s9.59,37,77.73,52.87c0,0-18.1,29.6-47.91,25.37,0,0,16,24.2,47.91,31.13C543.75,218.77,408.52,419.2,409.59,416Z" transform="translate(-170 -51.89)"/><path class="cls-5" d="M390.41,416C335,251.08,334,109.4,334,109.4s-9.59,37-77.73,52.87c0,0,18.1,29.6,47.91,25.37,0,0-16,24.2-47.91,31.13C256.25,218.77,391.48,419.2,390.41,416Z" transform="translate(-170 -51.89)"/><path class="cls-5" d="M400,416.07s28.22-67.62,28.75-95.84c0,0-10.12-173-19.17-191.66,0,0,18.64-19.7,19.17-28.75,0,0-19.7,9.05-28.75,0" transform="translate(-170 -51.89)"/><path class="cls-5" d="M400,416.07s-28.22-67.62-28.75-95.84c0,0,10.12-173,19.17-191.66,0,0-18.64-19.7-19.17-28.75,0,0,19.7,9.05,28.75,0" transform="translate(-170 -51.89)"/></g></svg>