<svg xmlns="http://www.w3.org/2000/svg" viewBox="0 0 370 510.09"><defs><style>.cls-1{font-size:61.37px;font-family:AcherusGrotesque-Regular, Acherus Grotesque;}.cls-1,.cls-4{fill:#1b1f26;}.cls-2{letter-spacing:-0.01em;}.cls-3{font-size:24.55px;fill:#838380;font-family:AcherusGrotesque-RegularItalic, Acherus Grotesque;font-style:italic;}</style></defs><g id="fond"><text class="cls-1" transform="translate(21.21 468.46) scale(1.06 1)">COST A<tspan class="cls-2" x="229.93" y="0">R</tspan><tspan x="270.31" y="0">T</tspan></text><text class="cls-3" transform="translate(130.59 501.65) scale(1.06 1)">HOMME</text></g><g id="Layer_1" data-name="Layer 1"><path class="cls-4" d="M412.34,431.28C483.6,231.3,485,59.53,485,59.53s12.33,44.86,100,64.09c0,0-23.3,35.89-61.66,30.77,0,0,20.55,29.33,61.66,37.74C585,192.13,411,435.12,412.34,431.28Z" transform="translate(-215 -47.91)"/><path class="cls-4" d="M387.66,431.28C316.4,231.3,315,59.53,315,59.53s-12.33,44.86-100,64.09c0,0,23.3,35.89,61.66,30.77,0,0-20.55,29.33-61.66,37.74C215,192.13,389,435.12,387.66,431.28Z" transform="translate(-215 -47.91)"/><path class="cls-4" d="M400,431.32s36.31-82,37-116.18c0,0-13-209.78-24.67-232.38,0,0,24-23.88,24.67-34.85,0,0-25.35,11-37,0" transform="translate(-215 -47.91)"/><path class="cls-4" d="M400,431.32s-36.31-82-37-116.18c0,0,13-209.78,24.67-232.38,0,0-24-23.88-24.67-34.85,0,0,25.35,11,37,0" transform="translate(-215 -47.91)"/></g></svg>