<svg xmlns="http://www.w3.org/2000/svg" viewBox="0 0 498 460.11"><defs><style>.cls-1{fill:#1b1f26;}.cls-2{fill:#fff;}</style></defs><g id="fond"><rect class="cls-1" width="498" height="460.11"/></g><g id="Layer_1" data-name="Layer 1"><path class="cls-2" d="M410.38,459.56c59.94-184.16,61.1-342.35,61.1-342.35s10.37,41.32,84.15,59c0,0-19.6,33-51.88,28.33,0,0,17.29,27,51.88,34.76C555.63,239.33,409.23,463.1,410.38,459.56Z" transform="translate(-151 -53.01)"/><path class="cls-2" d="M389.62,459.56c-59.94-184.16-61.1-342.35-61.1-342.35s-10.37,41.32-84.15,59c0,0,19.6,33,51.88,28.33,0,0-17.29,27-51.88,34.76C244.37,239.33,390.77,463.1,389.62,459.56Z" transform="translate(-151 -53.01)"/><path class="cls-2" d="M400,459.6s30.55-75.49,31.13-107c0,0-11-193.18-20.75-214,0,0,20.17-22,20.75-32.1,0,0-21.33,10.11-31.13,0" transform="translate(-151 -53.01)"/><path class="cls-2" d="M400,459.6s-30.55-75.49-31.13-107c0,0,11-193.18,20.76-214,0,0-20.18-22-20.75-32.1,0,0,21.32,10.11,31.12,0" transform="translate(-151 -53.01)"/></g></svg>