<svg xmlns="http://www.w3.org/2000/svg" viewBox="0 0 370 383.41"><defs><style>.cls-1{fill:#1b1f26;}</style></defs><g id="Layer_1" data-name="Layer 1"><path class="cls-1" d="M412.34,484.28C483.6,284.3,485,112.53,485,112.53s12.33,44.86,100,64.09c0,0-23.3,35.89-61.66,30.77,0,0,20.55,29.33,61.66,37.74C585,245.13,411,488.12,412.34,484.28Z" transform="translate(-215 -100.91)"/><path class="cls-1" d="M387.66,484.28C316.4,284.3,315,112.53,315,112.53s-12.33,44.86-100,64.09c0,0,23.3,35.89,61.66,30.77,0,0-20.55,29.33-61.66,37.74C215,245.13,389,488.12,387.66,484.28Z" transform="translate(-215 -100.91)"/><path class="cls-1" d="M400,484.32s36.31-82,37-116.18c0,0-13-209.78-24.67-232.38,0,0,24-23.88,24.67-34.85,0,0-25.35,11-37,0" transform="translate(-215 -100.91)"/><path class="cls-1" d="M400,484.32s-36.31-82-37-116.18c0,0,13-209.78,24.67-232.38,0,0-24-23.88-24.67-34.85,0,0,25.35,11,37,0" transform="translate(-215 -100.91)"/></g></svg>